<svg width="1200" height="630" viewBox="0 0 1200 630" fill="none" xmlns="http://www.w3.org/2000/svg">
  <rect width="1200" height="630" fill="#FAF7F2"/>
  <path d="M928.6 127.4C1020.2 190.7 1072.5 289.8 1049.2 386.9C1025.9 484.1 927.1 579.3 808.2 584.9C689.3 590.4 550.4 506.4 428.3 503.5C306.3 500.6 201 578.7 133.6 541.6C66.2 504.5 36.8 352.1 92 248.6C147.2 145.2 287.1 90.8 417.1 69.3C547 47.9 667.1 59.4 758.8 73.1C850.5 86.8 837 64.1 928.6 127.4Z" fill="#8FAF8A" fill-opacity="0.18"/>
  <path d="M337 176C424 115 537 101 632 143C727 185 804 283 783 370C762 457 643 533 524 528C405 523 286 437 253 341C220 245 250 237 337 176Z" fill="#D9B5A0" fill-opacity="0.18"/>
  <text x="96" y="265" fill="#5C7A58" font-family="Georgia, serif" font-size="88" font-style="italic">Wash &amp; Wags</text>
  <text x="102" y="330" fill="#2C2C2C" font-family="Arial, sans-serif" font-size="34" letter-spacing="4">LUXURY MOBILE DOG GROOMING</text>
  <text x="102" y="386" fill="#8A8A80" font-family="Arial, sans-serif" font-size="30">Veterinary expertise meets spa-quality care.</text>
  <circle cx="950" cy="268" r="44" fill="#C8A96E" fill-opacity="0.24"/>
  <circle cx="1018" cy="328" r="30" fill="#8FAF8A" fill-opacity="0.28"/>
  <circle cx="902" cy="358" r="34" fill="#D9B5A0" fill-opacity="0.3"/>
</svg>
